<svg width="80" height="80" viewBox="0 0 80 80" fill="none" xmlns="http://www.w3.org/2000/svg">
<rect width="80" height="80" rx="16" fill="#A5CD38"/>
<path d="M20.6728 41.2506C16.1279 41.2506 12.4443 37.6818 12.4443 33.2755V28.4053H16.9066C21.4514 28.4053 25.135 31.9751 25.135 36.3769V41.2506H20.6728ZM47.0017 29.96V23.1111H40.9474C40.191 23.1111 39.4363 23.1875 38.6941 23.3369C36.1942 23.8549 33.9474 25.2139 32.3279 27.1875C31.8772 27.7458 31.4799 28.344 31.1421 28.9769C30.2532 30.616 29.7901 32.4524 29.7946 34.3191V41.168H35.8337C38.7954 41.168 41.6363 39.9866 43.7306 37.8853C45.8265 35.7803 47.0027 32.9305 47.0017 29.96Z" fill="#3A7240"/>
<path d="M55.673 23.1111H53.1521V29.96C53.1482 34.5643 51.3226 38.9799 48.0738 42.2426C46.4687 43.8548 44.5614 45.1347 42.4612 46.0092C40.3609 46.8836 38.1089 47.3354 35.8338 47.3386H29.7778V49.5635C29.7761 51.0364 30.0623 52.496 30.6232 53.8569C31.1831 55.2179 32.0056 56.4554 33.0436 57.4986C34.08 58.5405 35.3118 59.3676 36.6685 59.9324C38.025 60.496 39.4783 60.7866 40.9467 60.7866H55.6721C57.1405 60.7866 58.5938 60.496 59.9503 59.9324C61.3069 59.3676 62.5388 58.5405 63.5752 57.4986C65.6703 55.3896 66.8446 52.5364 66.841 49.5635V34.3191C66.842 31.3486 65.6658 28.4987 63.5698 26.3938C62.5344 25.3538 61.3038 24.5285 59.9487 23.9652C58.5935 23.4018 57.1405 23.1116 55.673 23.1111Z" fill="white"/>
</svg>
