<svg width="24" height="24" viewBox="0 0 24 24" fill="none" xmlns="http://www.w3.org/2000/svg">
<rect width="24" height="24" rx="6" fill="#00A74D"/>
<path fill-rule="evenodd" clip-rule="evenodd" d="M14.1962 15.3489C13.6155 15.7433 12.8705 15.9317 12.0131 15.9317C11.6009 15.9561 11.1947 15.8239 10.8757 15.5616C10.618 15.3139 10.478 14.8045 10.478 14.0242C10.476 13.7213 10.4915 13.4185 10.5248 13.1177C11.8681 13.0542 13.1484 12.5294 14.1498 11.6317C15.1714 10.7249 15.7037 9.6316 15.7037 8.34015C15.7037 7.68264 15.5187 7.15435 15.1472 6.76167C14.7753 6.36898 14.0643 6.16944 13.0104 6.16944C12.3745 6.1683 11.7471 6.31531 11.1779 6.5988C10.0147 7.11599 9.10882 7.99524 8.4604 9.22781C7.60483 10.7591 7.15613 12.4841 7.15717 14.2382C7.15717 15.5152 7.46001 16.4422 8.10944 17.0008C8.75954 17.5597 9.5964 17.8309 10.6648 17.8309C13.1023 17.8309 15.1472 16.4345 16.8427 13.6459H16.0789C15.5227 14.2878 14.8905 14.8596 14.1962 15.3489ZM11.8119 8.83344C12.3223 7.87579 12.8587 7.38788 13.4206 7.36971C13.7908 7.36971 13.9775 7.64126 13.9775 8.18536C13.9864 9.15796 13.633 10.0991 12.9862 10.8255C12.3139 11.5742 11.5719 11.9763 10.7098 12.0335C10.9201 10.919 11.2913 9.84106 11.8119 8.83344Z" fill="white"/>
</svg>
